<svg xmlns="http://www.w3.org/2000/svg" width="19" height="21" viewBox="0 0 19 21" fill="none"><path d="M15.75 2.66665C14.0924 1.00905 11.8442 0.0778198 9.49997 0.0778198C7.15576 0.0778198 4.90757 1.00905 3.24997 2.66665C1.59236 4.32426 0.661133 6.57245 0.661133 8.91665C0.661133 11.2609 1.59236 13.5091 3.24997 15.1667L8.73955 20.6667C8.83639 20.7643 8.9516 20.8418 9.07853 20.8947C9.20547 20.9475 9.34162 20.9748 9.47913 20.9748C9.61665 20.9748 9.7528 20.9475 9.87973 20.8947C10.0067 20.8418 10.1219 20.7643 10.2187 20.6667L15.75 15.1146C17.4006 13.4639 18.328 11.225 18.328 8.89061C18.328 6.55618 17.4006 4.31736 15.75 2.66665ZM14.2604 13.625L9.49997 18.4062L4.73955 13.625C3.79908 12.6837 3.1588 11.4846 2.89965 10.1795C2.6405 8.87429 2.77412 7.5216 3.28362 6.29236C3.79311 5.06313 4.65561 4.01254 5.76208 3.2734C6.86856 2.53426 8.16933 2.13976 9.49997 2.13976C10.8306 2.13976 12.1314 2.53426 13.2379 3.2734C14.3443 4.01254 15.2068 5.06313 15.7163 6.29236C16.2258 7.5216 16.3594 8.87429 16.1003 10.1795C15.8411 11.4846 15.2009 12.6837 14.2604 13.625ZM6.37497 5.71874C5.53405 6.56225 5.06184 7.70474 5.06184 8.89582C5.06184 10.0869 5.53405 11.2294 6.37497 12.0729C6.99972 12.6987 7.79537 13.1261 8.6621 13.3014C9.52884 13.4768 10.428 13.3923 11.2469 13.0585C12.0658 12.7247 12.7679 12.1565 13.2651 11.4252C13.7622 10.694 14.0324 9.83214 14.0416 8.9479C14.0463 8.35749 13.9326 7.77213 13.7072 7.22643C13.4817 6.68073 13.1492 6.18578 12.7291 5.77082C12.3163 5.34851 11.824 5.01201 11.2806 4.78068C10.7372 4.54936 10.1534 4.42777 9.56289 4.42293C8.97232 4.41809 8.38663 4.53009 7.83952 4.75248C7.29241 4.97486 6.79468 5.30325 6.37497 5.71874ZM11.2604 10.5937C10.8656 10.9945 10.3439 11.2457 9.78448 11.3044C9.22501 11.3631 8.66253 11.2257 8.1932 10.9155C7.72387 10.6054 7.37684 10.1419 7.21143 9.60424C7.04603 9.06658 7.07252 8.48815 7.28638 7.96786C7.50025 7.44756 7.8882 7.01771 8.38391 6.7518C8.87962 6.48588 9.45231 6.40041 10.0041 6.51C10.5558 6.6196 11.0524 6.91744 11.4088 7.35262C11.7653 7.7878 11.9595 8.33329 11.9583 8.89582C11.9431 9.53881 11.6734 10.1495 11.2083 10.5937H11.2604Z" fill="black"></path></svg>