<svg xmlns="http://www.w3.org/2000/svg" width="21" height="17" viewBox="0 0 21 17" fill="none"><path d="M17.7917 0.166656H3.20837C2.37957 0.166656 1.58472 0.495897 0.998666 1.08195C0.412614 1.668 0.083374 2.46285 0.083374 3.29166V13.7083C0.083374 14.5371 0.412614 15.332 0.998666 15.918C1.58472 16.5041 2.37957 16.8333 3.20837 16.8333H17.7917C18.6205 16.8333 19.4154 16.5041 20.0014 15.918C20.5875 15.332 20.9167 14.5371 20.9167 13.7083V3.29166C20.9167 2.46285 20.5875 1.668 20.0014 1.08195C19.4154 0.495897 18.6205 0.166656 17.7917 0.166656ZM17.3646 2.24999L11.2396 8.37499C11.1428 8.47262 11.0276 8.55012 10.9006 8.603C10.7737 8.65588 10.6376 8.68311 10.5 8.68311C10.3625 8.68311 10.2264 8.65588 10.0994 8.603C9.9725 8.55012 9.85729 8.47262 9.76046 8.37499L3.63546 2.24999H17.3646ZM18.8334 13.7083C18.8334 13.9846 18.7236 14.2495 18.5283 14.4449C18.3329 14.6402 18.068 14.75 17.7917 14.75H3.20837C2.93211 14.75 2.66716 14.6402 2.4718 14.4449C2.27645 14.2495 2.16671 13.9846 2.16671 13.7083V3.71874L8.29171 9.84374C8.87765 10.4289 9.67191 10.7577 10.5 10.7577C11.3282 10.7577 12.1224 10.4289 12.7084 9.84374L18.8334 3.71874V13.7083Z" fill="black"></path></svg>